<?xml version="1.0"?>
<svg xmlns="http://www.w3.org/2000/svg" xmlns:xlink="http://www.w3.org/1999/xlink" xmlns:svgjs="http://svgjs.com/svgjs" version="1.1" width="512" height="512" x="0" y="0" viewBox="0 0 511.989 511.989" style="enable-background:new 0 0 512 512" xml:space="preserve" class=""><g><g xmlns="http://www.w3.org/2000/svg"><g><path d="m182.218 364.34c-.051-.051-.099-.103-.15-.153-16.693-16.693-36.898-23.216-58.424-18.863-18.014 3.642-37.038 15.07-55.017 33.049s-29.407 37.003-33.049 55.017c-4.335 21.444 2.122 41.57 18.668 58.225.021.023.044.044.065.067.044.044.085.089.129.133 13.331 13.331 28.899 20.175 45.595 20.175 4.21 0 8.494-.436 12.83-1.312 18.014-3.642 37.038-15.07 55.017-33.049s29.407-37.003 33.049-55.017c4.334-21.437-2.119-41.558-18.654-58.21-.019-.021-.039-.041-.059-.062zm-127.036 73.013c2.859-14.145 12.399-29.65 27.587-44.837 15.188-15.188 30.693-24.728 44.838-27.588 3.078-.622 6.077-.934 9.004-.934 6.338 0 12.337 1.469 18.065 4.417-25.234 13.056-36.79 35.871-47.185 56.427-10.823 21.403-20.289 40.095-42.911 48.443-8.998-10.865-12.079-22.669-9.398-35.928zm126.146-18.705c-2.86 14.145-12.399 29.65-27.588 44.837-15.188 15.188-30.693 24.728-44.838 27.588-9.82 1.985-18.839.792-27.274-3.607 22.905-12.469 33.847-34.096 43.712-53.605 11.401-22.548 21.359-42.223 46.559-51.174 9.022 10.874 12.112 22.688 9.429 35.961z" fill="#2c1c1c" data-original="#000000" style=""/><path d="m318.662 301.994c-19.669-9.777-40.872-8.704-61.315 3.1-.061.035-.12.072-.182.108-.026.016-.052.03-.078.046-20.281 11.804-31.721 29.569-33.083 51.396-1.145 18.342 4.97 39.676 17.683 61.696s28.131 37.982 44.588 46.162c8.885 4.416 18.081 6.619 27.38 6.618 11.251 0 22.652-3.227 33.827-9.656.022-.012.044-.024.065-.037.015-.009.03-.016.044-.025 20.444-11.803 31.974-29.629 33.342-51.551 1.145-18.342-4.971-39.676-17.684-61.696s-28.13-37.981-44.587-46.161zm-23.485 144.599c-12.923-6.423-25.43-19.651-36.17-38.252-10.739-18.602-15.941-36.047-15.042-50.45.844-13.515 6.887-24.127 18.415-32.295 22.024 15.169 26.551 36.751 31.727 61.481 4.48 21.397 9.452 45.12 28.349 63.092-9.285 2.065-18.305.883-27.279-3.576zm65.794-37.987c-.842 13.502-6.873 24.106-18.377 32.271-19.69-13.918-23.996-34.423-28.911-57.899-4.72-22.545-9.977-47.571-30.969-66.713 2.856-.619 5.688-.938 8.501-.938 6.25 0 12.408 1.527 18.544 4.577 12.923 6.423 25.43 19.651 36.17 38.252 10.739 18.602 15.942 36.047 15.042 50.45z" fill="#2c1c1c" data-original="#000000" style=""/><path d="m258.085 262.306c9.735-19.585 8.71-40.691-2.953-61.054-.013-.025-.028-.049-.042-.074-.036-.062-.069-.125-.105-.187-11.803-20.444-29.629-31.974-51.551-33.342-18.344-1.141-39.676 4.971-61.696 17.684s-37.982 28.131-46.162 44.588c-9.734 19.584-8.709 40.69 2.953 61.054.013.025.028.049.042.074.036.062.069.125.105.187 11.803 20.444 29.629 31.974 51.551 33.342 1.452.09 2.92.136 4.409.136 17.313-.001 37.011-6.112 57.287-17.819 22.02-12.714 37.983-28.132 46.162-44.589zm-56.161 27.268c-18.601 10.739-36.048 15.94-50.45 15.042-9.995-.624-18.394-4.107-25.4-10.531 7.957-1.912 15.477-5.106 22.699-9.635 4.679-2.935 6.093-9.106 3.159-13.785-2.934-4.678-9.106-6.092-13.785-3.159-7.824 4.906-15.848 7.649-24.872 8.465-5.886-12.828-5.809-25.031.214-37.148 6.423-12.923 19.651-25.43 38.252-36.17 17.227-9.946 33.462-15.142 47.208-15.142 1.097 0 2.178.033 3.243.1 9.907.618 18.246 4.044 25.215 10.36-7.865 1.726-15.293 4.59-22.424 8.631-4.805 2.723-6.493 8.826-3.77 13.63 1.841 3.248 5.225 5.072 8.709 5.072 1.67 0 3.364-.419 4.921-1.302 7.863-4.456 16.266-7.013 25.538-7.768 5.897 12.836 5.824 25.046-.203 37.171-6.425 12.922-19.653 25.429-38.254 36.169z" fill="#2c1c1c" data-original="#000000" style=""/><path d="m477.718 216.867c-.001-.074-.003-.147-.006-.221-.104-23.429-9.762-42.193-27.964-54.273-15.313-10.162-36.847-15.534-62.272-15.534s-46.959 5.372-62.271 15.534c-18.301 12.145-27.974 31.043-27.974 54.65 0 .053.004.104.004.157.001.074.003.147.006.221.104 23.429 9.762 42.193 27.964 54.272 15.312 10.162 36.846 15.534 62.271 15.534s46.959-5.372 62.272-15.534c18.301-12.145 27.974-31.043 27.974-54.65 0-.052-.004-.103-.004-.156zm-141.454-37.829c12.024-7.98 29.733-12.198 51.212-12.198s39.188 4.218 51.213 12.198c11.272 7.48 17.44 18.005 18.759 32.051-21.899 10.093-41.81 3.57-64.597-3.912-21.882-7.185-46.18-15.144-73.249-6.541 2.875-8.963 8.386-16.106 16.662-21.598zm102.425 75.972c-12.024 7.98-29.733 12.198-51.213 12.198-21.479 0-39.188-4.218-51.212-12.198-11.283-7.488-17.452-18.028-18.762-32.095 24.147-11.488 45.101-4.619 69.108 3.264 14.715 4.831 30.561 10.035 47.446 10.034 6.948 0 14.073-.882 21.367-3.034-2.853 9.072-8.387 16.292-16.734 21.831z" fill="#2c1c1c" data-original="#000000" style=""/><path d="m152.753 94.793c8.18 16.457 24.142 31.875 46.162 44.588 20.278 11.708 39.974 17.819 57.288 17.819 1.488 0 2.958-.045 4.409-.135 21.921-1.368 39.747-12.897 51.551-33.342.037-.064.071-.128.108-.193.012-.022.025-.044.037-.066 11.664-20.365 12.689-41.472 2.955-61.058-8.18-16.457-24.143-31.875-46.162-44.588-22.021-12.712-43.36-18.829-61.698-17.682-21.921 1.368-39.748 12.897-51.551 33.342-.036.062-.069.125-.105.187-.014.025-.028.049-.042.074-11.662 20.364-12.687 41.47-2.952 61.054zm106.612 42.311c-14.396.899-31.848-4.303-50.45-15.042-18.601-10.74-31.829-23.247-38.252-36.17-6.027-12.126-6.1-24.338-.201-37.176 26.658 2.124 41.369 18.552 58.218 37.381 14.578 16.291 30.745 34.35 56.097 40.465-7.008 6.431-15.412 9.918-25.412 10.542zm-50.716-117.007c14.402-.898 31.849 4.303 50.45 15.042s31.829 23.247 38.252 36.17c6.021 12.114 6.101 24.313.22 37.137-24.011-2.208-37.993-17.814-53.987-35.686-15.358-17.162-32.421-36.204-60.165-42.289 6.972-6.324 15.316-9.755 25.23-10.374z" fill="#2c1c1c" data-original="#000000" style=""/><path d="m176.276 235.188h-.007c-5.523 0-9.996 4.477-9.996 10s4.48 10 10.003 10 10-4.477 10-10-4.477-10-10-10z" fill="#2c1c1c" data-original="#000000" style=""/></g></g></g></svg>
